<svg xmlns="http://www.w3.org/2000/svg" width="48" height="48" viewBox="0 0 48 48" version="1.1" id="svg32"><metadata id="metadata36"/><defs id="defs4"><style id="style2">.a,.b{fill:none;stroke:#231815;stroke-width:2px}.a{stroke-linecap:round;stroke-linejoin:round}.b{stroke-miterlimit:10}.c{fill:#231815}</style><clipPath clipPathUnits="userSpaceOnUse" id="clipPath5082"><path d="M 60,512 C 27,512 0,485 0,452 V 452 60 C 0,27 27,0 60,0 V 0 H 269.284 357.865 452 c 33,0 60,27 60,60 v 0 392 c 0,33 -27,60 -60,60 v 0 z" id="path5080"/></clipPath><clipPath clipPathUnits="userSpaceOnUse" id="clipPath5783"><path d="M 60,512 C 27,512 0,485 0,452 V 452 60 C 0,27 27,0 60,0 V 0 H 269.284 357.865 452 c 33,0 60,27 60,60 v 0 392 c 0,33 -27,60 -60,60 v 0 z" id="path5781"/></clipPath><clipPath clipPathUnits="userSpaceOnUse" id="clipPath6419"><path d="M 60,512 C 27,512 0,485 0,452 V 452 60 C 0,27 27,0 60,0 V 0 H 269.284 357.865 452 c 33,0 60,27 60,60 v 0 392 c 0,33 -27,60 -60,60 v 0 z" id="path6417"/></clipPath><clipPath clipPathUnits="userSpaceOnUse" id="clipPath7049"><path d="M 60,512 C 27,512 0,485 0,452 V 452 60 C 0,27 27,0 60,0 V 0 H 269.284 357.865 452 c 33,0 60,27 60,60 v 0 392 c 0,33 -27,60 -60,60 v 0 z" id="path7047"/></clipPath></defs><g id="g30"><g transform="matrix(0.09025409,0,0,-0.09025409,1.2630799,47.190077)" id="g7043"><g id="g7045" clip-path="url(#clipPath7049)"><path d="M 512,0 H 0 v 512 h 512 z" style="fill:#ffffff;fill-opacity:1;fill-rule:nonzero;stroke:none" id="path7051"/><path d="M 512,0 H 0 v 169.482 h 512 z" style="fill:#0079c5;fill-opacity:1;fill-rule:nonzero;stroke:none" id="path7053"/><path d="M 512,361.297 H 0 V 512 h 512 z" style="fill:#23ac39;fill-opacity:1;fill-rule:nonzero;stroke:none" id="path7055"/><g id="g7057" transform="translate(270.1143,256.9814)"><path d="m 0,0 -9.614,24.594 -14.151,-0.051 c 0,0 17.426,-42.084 17.169,-42.456 -0.172,-0.278 -5.894,-14.879 -6.137,-15.345 0.443,-0.035 14.164,0.043 14.177,0.151 0.116,0.715 21.147,57.701 21.147,57.701 L 9.07,24.586 Z" style="fill:#0079c5;fill-opacity:1;fill-rule:evenodd;stroke:none" id="path7059"/></g><g id="g7061" transform="translate(214.4307,302.2847)"><path d="m 0,0 c -4.493,0 -8.141,-3.634 -8.141,-8.134 0,-4.478 3.648,-8.105 8.141,-8.105 4.478,0 8.126,3.627 8.126,8.105 C 8.126,-3.634 4.478,0 0,0" style="fill:#0079c5;fill-opacity:1;fill-rule:evenodd;stroke:none" id="path7063"/></g><g id="g7065" transform="translate(115.4248,246.7871)"><path d="m 0,0 c -0.872,-0.779 -2.146,-0.873 -8.012,-0.873 -0.844,0 -4.378,1.303 -4.378,5.18 0,7.232 7.354,6.452 9.457,6.452 1.989,0 4.192,-0.786 4.192,-2.217 0,-1.088 0.043,-4.429 0.043,-5.916 C 1.302,1.138 0.615,0.529 0,0 m 13.549,-5.644 c 0,1.524 0.028,2.546 0.028,4.078 -0.014,7.482 -0.014,14.972 -0.014,22.455 0,0.186 0,0.407 -0.029,0.579 -0.171,2.611 -1.674,13.241 -14.578,13.828 -0.129,0.05 -3.678,0.064 -3.691,0.021 -13.364,-0.322 -15.008,-3.061 -15.008,-3.061 V 21.59 c 0,0 4.092,3.147 9.814,3.305 5.652,0.157 7.955,-0.831 9.299,-1.968 0.33,-0.329 0.645,-0.679 0.83,-1.066 0.473,-0.865 0.817,-1.624 1.073,-2.782 0,0 -0.086,-0.63 -0.243,-0.737 C 0.901,18.22 0.544,18.234 0.544,18.234 0.43,18.242 0.101,18.356 0.043,18.385 c -0.243,0.193 -2.16,1.287 -9.5,0.972 -4.636,-0.207 -9.772,-3.498 -10.802,-4.75 -1.259,-1.523 -4.306,-3.776 -4.306,-11.488 0,-2.64 0.944,-5.773 3.176,-9.55 2.246,-3.762 8.985,-4.922 9.257,-4.936 3.477,-0.086 7.253,0.107 8.971,0.637 1.803,0.565 3.476,1.774 3.963,2.167 0.371,0.279 1.072,0.236 1.072,-0.092 0,-0.787 0.23,-1.446 0.602,-2.14 0.214,-0.364 0.286,-0.579 0.286,-0.579 0,0 12.976,0 13.319,0.035 -0.457,0.573 -0.844,0.995 -1.13,1.488 -0.429,0.73 -1.402,3.27 -1.402,4.207" style="fill:#0079c5;fill-opacity:1;fill-rule:evenodd;stroke:none" id="path7067"/></g><g id="g7069" transform="translate(388.0625,246.7871)"><path d="m 0,0 c -0.888,-0.779 -2.146,-0.873 -8.026,-0.873 -0.845,0 -4.365,1.303 -4.365,5.18 0,7.232 7.355,6.452 9.457,6.452 1.99,0 4.178,-0.786 4.178,-2.217 0,-1.088 0.043,-4.429 0.043,-5.916 C 1.287,1.138 0.601,0.529 0,0 m 13.534,-5.644 c 0,1.524 0.029,2.546 0.029,4.078 -0.014,7.482 -0.014,14.972 -0.014,22.455 0,0.186 0,0.407 -0.029,0.579 -0.158,2.611 -1.674,13.241 -14.579,13.828 -0.128,0.05 -3.663,0.064 -3.677,0.021 -13.391,-0.322 -15.023,-3.061 -15.023,-3.061 V 21.59 c 0,0 4.107,3.147 9.816,3.305 5.665,0.157 7.968,-0.831 9.313,-1.968 0.315,-0.329 0.63,-0.679 0.83,-1.066 0.458,-0.865 0.801,-1.624 1.059,-2.782 0,0 -0.086,-0.63 -0.23,-0.737 -0.142,-0.122 -0.5,-0.108 -0.5,-0.108 -0.1,0.008 -0.429,0.122 -0.486,0.151 -0.258,0.193 -2.161,1.287 -9.515,0.972 -4.635,-0.207 -9.771,-3.498 -10.801,-4.75 -1.26,-1.523 -4.321,-3.776 -4.321,-11.488 0,-2.64 0.973,-5.773 3.204,-9.55 2.232,-3.762 8.986,-4.922 9.257,-4.936 3.463,-0.086 7.239,0.107 8.956,0.637 1.818,0.565 3.477,1.774 3.978,2.167 0.372,0.279 1.073,0.236 1.073,-0.092 0,-0.787 0.214,-1.446 0.601,-2.14 0.186,-0.364 0.271,-0.579 0.271,-0.579 0,0 12.977,0 13.32,0.035 -0.458,0.573 -0.843,0.995 -1.129,1.488 -0.416,0.73 -1.403,3.27 -1.403,4.207" style="fill:#0079c5;fill-opacity:1;fill-rule:evenodd;stroke:none" id="path7071"/></g><g id="g7073" transform="translate(184.958,282.1973)"><path d="m 0,0 c -7.196,0 -13.034,-2.432 -13.363,-5.458 h -0.058 C -13.692,-2.432 -19.015,0 -25.538,0 c -5.108,0 -9.457,-1.48 -11.26,-3.577 -0.029,0.959 -0.015,1.903 -0.015,2.876 -0.229,0.029 -0.343,0.064 -0.471,0.064 -3.52,0.008 -7.069,0 -10.588,0.015 -0.501,0 -0.586,-0.208 -0.572,-0.637 v -4.299 -40.153 -1.073 h 12.161 v 30.138 c 0,2.454 2.947,4.442 6.567,4.442 3.634,0 6.567,-1.988 6.567,-4.442 v -30.138 h 12.404 v 30.138 c 0,2.454 2.947,4.442 6.582,4.442 3.619,0 6.553,-1.988 6.553,-4.442 v -30.138 h 12.618 v 32.334 0.408 0.879 c -0.015,0.022 -0.029,0.058 -0.043,0.079 C 14.45,-4.135 7.14,0 0,0" style="fill:#0079c5;fill-opacity:1;fill-rule:evenodd;stroke:none" id="path7075"/></g><g id="g7077" transform="translate(420.9111,277.7051)"><path d="M 0,0 V 3.87 H -12.189 V -42.292 H 0 v 29.823 c 1.331,1.095 4.693,3.512 8.556,3.512 4.993,0 7.297,-1.859 7.297,-1.859 V 2.575 c 0,0 -2.919,1.717 -6.51,1.717 C 6.596,4.292 2.175,1.781 0,0" style="fill:#0079c5;fill-opacity:1;fill-rule:evenodd;stroke:none" id="path7079"/></g><path d="m 208.192,235.413 h 12.333 v 46.162 h -12.333 z" style="fill:#0079c5;fill-opacity:1;fill-rule:evenodd;stroke:none" id="path7081"/><path d="m 229.711,235.413 h 12.275 v 65.935 h -12.275 z" style="fill:#0079c5;fill-opacity:1;fill-rule:evenodd;stroke:none" id="path7083"/><g id="g7085" transform="translate(61,288.6787)"><path d="M 0,0 H 29.859 V 12.647 H 0 -12.818 V 0 -53.266 H 0 v 28.979 h 28.644 v 12.605 H 0 Z" style="fill:#0079c5;fill-opacity:1;fill-rule:evenodd;stroke:none" id="path7087"/></g><g id="g7089" transform="translate(469.3408,269.5283)"><path d="M 0,0 V 12.04 H -10.688 V 29.287 L -22.791,23.686 V 12.04 H -29.53 V 0 h 6.739 v -20.073 l -0.043,-0.014 c 0,-0.279 0.028,-0.529 0.043,-0.802 v -0.471 h 0.015 c 0.701,-11.411 10.558,-12.784 15.308,-12.784 4.936,0 6.867,1.288 6.867,1.288 v 11.424 c 0,0 -1.116,-0.93 -5.58,-0.93 -4.477,0 -4.507,6.174 -4.507,6.174 V 0 Z" style="fill:#0079c5;fill-opacity:1;fill-rule:evenodd;stroke:none" id="path7091"/></g><g id="g7093" transform="translate(326.7705,281.1816)"><path d="m 0,0 c -1.288,1.56 -16.439,20.187 -16.439,20.187 h -13.363 v -65.984 h 13.363 V -0.286 C -16.396,-0.329 -2.504,-18.142 0,-21.354 2.489,-18.142 16.396,-0.329 16.425,-0.286 V -45.797 H 29.787 V 20.187 H 16.425 C 16.425,20.187 1.287,1.56 0,0" style="fill:#0079c5;fill-opacity:1;fill-rule:evenodd;stroke:none" id="path7095"/></g></g></g></g></svg>