<svg xmlns="http://www.w3.org/2000/svg" width="48" height="48" viewBox="0 0 48 48" version="1.1" id="svg32"><metadata id="metadata36"/><defs id="defs4"><style id="style2">.a,.b{fill:none;stroke:#231815;stroke-width:2px}.a{stroke-linecap:round;stroke-linejoin:round}.b{stroke-miterlimit:10}.c{fill:#231815}</style><clipPath clipPathUnits="userSpaceOnUse" id="clipPath5082"><path d="M 60,512 C 27,512 0,485 0,452 V 452 60 C 0,27 27,0 60,0 V 0 H 269.284 357.865 452 c 33,0 60,27 60,60 v 0 392 c 0,33 -27,60 -60,60 v 0 z" id="path5080"/></clipPath></defs><g id="g30"><g transform="matrix(0.08928591,0,0,-0.08928591,1.4620049,47.303825)" id="g5076"><g id="g5078" clip-path="url(#clipPath5082)"><path d="M 512,0 H 0 v 512 h 512 z" style="fill:#1972b2;fill-opacity:1;fill-rule:nonzero;stroke:none" id="path5084"/><g id="g5086" transform="translate(238.4702,304.7397)"><path d="M 0,0 H 34.806 C 28.951,3.85 4.612,3.702 0,0 m 44.642,3.975 c 3.653,10.332 7.187,19.797 10.283,29.415 1.461,4.525 -1.199,7.311 -5.474,8.178 -21.526,4.368 -43.116,4.471 -64.565,-0.218 -2.29,-0.501 -5.856,-4.923 -5.408,-6.592 2.792,-10.272 6.543,-20.271 10.163,-30.86 6.553,4.439 6.771,9.951 6.815,15.534 0.065,8.887 0.076,8.996 9.105,9.149 8.189,0.136 16.399,-0.284 24.589,0.06 6.009,0.24 8.451,-1.658 7.786,-7.988 C 37.292,14.694 37.642,8.631 44.642,3.975 m -53.868,-5.72 c -12.42,0.693 -12.082,0.627 -9.378,14.051 0.655,3.26 -1.351,7.29 -2.791,10.686 -7.361,17.447 -3.621,21.978 15.409,24.203 17.916,2.088 35.842,2.437 53.572,-1.287 11.624,-2.437 13.817,-6.902 9.847,-18.019 -1.254,-3.539 -2.813,-7.018 -3.598,-10.671 -0.491,-2.317 0.272,-4.879 0.316,-7.333 0.065,-3.277 0.85,-6.973 -0.437,-9.651 -0.654,-1.352 -5.135,-0.888 -7.882,-1.259 -0.797,-0.109 -1.571,-0.267 -2.368,-0.403 -0.709,-0.851 -1.417,-1.691 -2.136,-2.53 1.984,-0.938 4.263,-1.511 5.91,-2.846 11.592,-9.476 16.804,-22.284 17.033,-36.781 0.469,-28.832 0.25,-57.668 0.185,-86.499 -0.033,-9.319 -3.315,-15.153 -12.661,-15.818 -18.973,-1.347 -37.641,-1.003 -56.932,-0.616 -4.808,-0.06 -9.661,0.998 -14.448,1.8 -6.662,1.134 -10.402,5.724 -10.381,12.006 0.131,32.56 0.306,65.143 1.32,97.692 0.349,10.948 6.368,20.146 14.775,27.349 1.931,1.652 4.438,2.628 6.674,3.909 -0.676,0.681 -1.352,1.347 -2.029,2.017" style="fill:#ffffff;fill-opacity:1;fill-rule:evenodd;stroke:none" id="path5088"/></g><g id="g5090" transform="translate(219.1577,382.8872)"><path d="M 0,0 C 2.443,6.466 5.017,12.905 7.862,19.683 6.347,19.584 5.311,19.524 4.275,19.442 2.934,19.345 2.203,19.884 2.127,21.204 c -0.088,1.428 -0.196,2.857 -0.316,4.285 -0.077,1.096 0.381,1.729 1.625,1.81 5.418,0.371 10.86,0.655 16.301,0.867 1.233,0.044 1.745,-0.469 1.735,-1.624 -0.011,-1.521 0.043,-3.054 0.141,-4.581 0.066,-1.139 -0.426,-1.701 -1.635,-1.711 -0.796,-0.011 -1.603,-0.039 -2.4,-0.093 -1.395,-0.104 -1.57,-0.404 -0.916,-1.614 1.854,-3.364 3.686,-6.733 5.464,-10.114 1.036,-1.952 2.039,-3.904 3.053,-5.856 0.229,-0.447 0.502,-0.866 0.905,-1.564 0.403,0.665 0.697,1.074 0.916,1.515 2.715,5.48 5.518,10.932 8.418,16.357 0.807,1.494 0.698,1.646 -1.123,1.668 -0.84,0.006 -1.69,0.012 -2.541,0 -1.155,-0.022 -1.799,0.475 -1.832,1.593 -0.043,1.575 -0.043,3.156 -0.076,4.732 -0.022,1.009 0.535,1.532 1.559,1.548 5.54,0.077 11.1,0.038 16.64,-0.092 1.156,-0.033 1.624,-0.78 1.647,-1.701 0.044,-1.57 -0.011,-3.157 -0.109,-4.728 -0.066,-1.008 -0.72,-1.515 -1.81,-1.477 -4.493,0.125 -3.545,0.6 -5.823,-3.413 C 37.98,9.988 34.252,2.862 30.675,-4.286 c -0.905,-1.815 -0.764,-2.039 1.199,-2.023 3.446,0.022 3.446,0.012 3.479,-3.407 0,-0.954 -0.033,-1.914 0,-2.868 0.033,-1.205 -0.6,-1.788 -1.691,-1.799 -4.765,-0.055 -9.541,-0.18 -14.307,-0.338 -1.482,-0.044 -1.995,0.485 -2.104,2.033 -0.098,1.375 -0.108,2.765 -0.196,4.15 -0.066,1.265 0.556,1.837 1.745,1.886 0.622,0.022 1.243,0.071 1.843,0.044 1.537,-0.06 1.821,0.311 1.101,1.69 -2.389,4.656 -4.863,9.285 -7.415,13.887 -0.567,1.03 -1.156,2.05 -1.745,3.07 C 12.432,12.033 12.268,12.033 12.115,12.027 9.4,5.687 6.815,-0.671 4.177,-7.492 c 1.21,0.093 2.05,0.175 2.911,0.202 2.378,0.077 2.716,-0.24 2.847,-2.573 0.076,-0.96 0.13,-1.908 0.185,-2.868 0.098,-1.794 -0.382,-2.481 -2.159,-2.584 -4.853,-0.3 -9.705,-0.611 -14.558,-0.922 -0.436,-0.022 -1.243,0.627 -1.331,1.058 -0.315,1.684 -0.435,3.408 -0.555,5.125 -0.066,0.971 0.555,1.472 1.471,1.586 0.84,0.104 1.691,0.191 2.531,0.257 1.014,0.065 1.243,0.49 0.686,1.374 -1.58,2.491 -3.15,4.994 -4.765,7.459 -3.216,4.917 -6.586,9.764 -9.922,14.644 -0.939,1.369 -1.963,2.067 -3.698,1.598 -0.479,-0.136 -0.992,-0.197 -1.482,-0.186 -0.938,0.028 -1.647,0.371 -1.777,1.369 -0.207,1.614 -0.437,3.222 -0.644,4.83 -0.142,0.949 0.338,1.456 1.319,1.593 5.562,0.697 11.133,1.336 16.705,1.75 0.502,0.032 1.397,-0.682 1.495,-1.151 0.305,-1.734 0.458,-3.511 0.425,-5.266 0,-0.448 -0.829,-1.113 -1.407,-1.293 -0.937,-0.294 -1.984,-0.239 -2.976,-0.354 -1.495,-0.18 -1.658,-0.507 -0.83,-1.718 2.694,-3.98 5.344,-7.982 7.939,-12.005 0.971,-1.5 1.941,-3.01 2.912,-4.52 C -0.338,-0.06 -0.174,-0.033 0,0" style="fill:#ffffff;fill-opacity:1;fill-rule:evenodd;stroke:none" id="path5092"/></g><g id="g5094" transform="translate(383.0957,366.3887)"><path d="m 0,0 c 0.339,0.801 0.578,1.199 0.698,1.63 1.429,4.809 2.858,9.607 4.253,14.421 0.501,1.701 0.349,1.925 -1.462,2.454 -4.34,1.259 -4.241,0.742 -3.019,5.021 1.199,4.193 0.665,3.882 5.102,2.618 4.253,-1.211 8.495,-2.503 12.694,-3.861 1.755,-0.573 1.952,-0.943 1.428,-2.578 -0.392,-1.277 -0.807,-2.547 -1.232,-3.812 -0.513,-1.543 -0.861,-1.685 -2.552,-1.166 -0.73,0.229 -1.439,0.479 -2.17,0.675 -1.134,0.284 -1.854,0.055 -2.235,-1.161 C 9.236,6.75 6.903,-0.731 4.559,-8.195 c -0.372,-1.15 -0.066,-1.723 1.057,-1.963 0.055,-0.01 0.098,-0.032 0.142,-0.043 4.122,-1.183 3.795,-1.336 2.541,-5.147 -1.222,-3.67 -1.353,-3.773 -4.984,-2.574 -3.816,1.243 -7.622,2.563 -11.482,3.67 -1.385,0.403 -1.658,1.167 -1.254,2.442 0.349,1.134 0.697,2.285 1.014,3.424 0.622,2.148 0.698,2.198 2.923,1.581 0.73,-0.212 1.461,-0.425 2.202,-0.637 l 0.36,0.506 c -4.787,7.519 -9.847,14.956 -15.431,22.595 -0.261,-0.693 -0.424,-1.053 -0.523,-1.423 -1.21,-4.962 -2.388,-9.94 -3.631,-14.89 -0.316,-1.2 0.099,-1.663 1.19,-1.887 0.925,-0.196 1.831,-0.501 2.747,-0.747 1.211,-0.321 1.603,-1.172 1.298,-2.29 -0.426,-1.559 -0.895,-3.124 -1.505,-4.612 -0.153,-0.393 -0.993,-0.829 -1.396,-0.736 -4.896,1.166 -9.803,2.306 -14.699,3.478 -0.458,0.109 -1.068,1.113 -1.015,1.647 0.154,1.597 0.612,3.178 0.949,4.765 0.185,0.911 0.775,1.254 1.636,1.21 0.25,-0.01 0.48,-0.054 0.709,-0.092 3.315,-0.583 3.315,-0.589 4.078,2.775 1.581,6.99 3.141,13.979 4.765,20.947 0.284,1.216 -0.043,1.773 -1.308,2.029 -4.427,0.861 -3.555,0.921 -2.879,4.405 0.185,0.894 0.404,1.772 0.578,2.666 0.164,0.922 0.676,1.298 1.701,1.08 5.147,-1.102 10.294,-2.263 15.408,-3.571 1.701,-0.437 1.984,-0.998 1.603,-2.536 -0.305,-1.254 -0.611,-2.508 -0.959,-3.74 -0.426,-1.461 -0.993,-1.745 -2.531,-1.39 -1.013,0.234 -2.05,0.447 -3.086,0.643 -0.12,0.022 -0.261,-0.115 -0.719,-0.332 C -10.381,15.517 -5.146,7.965 0,0" style="fill:#ffffff;fill-opacity:1;fill-rule:evenodd;stroke:none" id="path5096"/></g><g id="g5098" transform="translate(290.1348,410.1372)"><path d="m 0,0 c 4.264,-0.311 8.527,-0.654 12.78,-1.096 3.839,-0.409 5.758,-2.726 5.366,-6.302 -0.241,-2.187 -0.502,-4.368 -0.72,-6.549 -0.131,-1.281 -0.807,-1.886 -2.17,-1.696 -0.196,0.022 -0.393,0.039 -0.589,0.066 -3.402,0.338 -3.489,0.447 -3.228,3.664 0.207,2.448 -0.316,3.053 -2.901,3.293 -5.942,0.545 -11.886,0.976 -17.828,1.287 -1.92,0.098 -2.497,-0.425 -2.596,-2.257 -0.076,-1.718 -0.174,-3.43 -0.24,-5.153 -0.076,-1.832 0.437,-2.404 2.323,-2.508 6.848,-0.376 13.674,-0.986 20.523,-1.537 2.943,-0.229 6.062,-2.901 5.473,-6.587 -0.719,-4.476 -1.047,-9.012 -1.57,-13.516 -0.349,-2.993 -2.791,-5.136 -5.714,-4.863 -7.84,0.725 -15.702,1.303 -23.554,1.701 -2.922,0.153 -5.07,2.732 -5.026,6.101 0.032,2.666 0.316,5.321 0.49,7.982 0.077,1.172 0.644,1.641 1.865,1.598 4.525,-0.186 4.427,-0.022 4.155,-4.433 -0.143,-2.628 0.425,-3.217 2.966,-3.375 5.277,-0.343 10.534,-0.818 15.778,-1.341 2.737,-0.262 3.566,0.447 3.86,3.25 0.175,1.755 0.371,3.505 0.502,5.266 0.142,2.05 -0.403,2.661 -2.475,2.857 -6.75,0.622 -13.511,1.189 -20.272,1.374 -4.023,0.115 -6.357,2.612 -6.259,6.635 0.109,3.626 0.207,7.258 0.382,10.878 0.076,1.679 0.436,3.293 1.778,4.569 1.089,1.046 2.343,1.554 3.947,1.461 C -8.636,0.529 -4.317,0.311 0,0" style="fill:#ffffff;fill-opacity:1;fill-rule:evenodd;stroke:none" id="path5100"/></g><g id="g5102" transform="translate(178.8882,380.6245)"><path d="M 0,0 C 0,0 0,0.005 -0.012,0.011 1.33,0.234 2.682,0.398 3.99,0.698 5.233,0.992 5.43,1.564 4.667,2.519 2.998,4.563 1.286,6.559 -0.415,8.565 -1.135,9.41 -1.745,9.351 -2.148,8.331 -3.152,5.779 -4.079,3.211 -5.006,0.648 -5.387,-0.409 -4.886,-0.807 -3.871,-0.671 -2.574,-0.485 -1.298,-0.224 0,0 m 12.736,-8.255 c -0.96,1.26 -1.897,2.563 -2.955,3.762 -0.229,0.257 -0.884,0.3 -1.308,0.24 -4.635,-0.627 -9.258,-1.39 -13.893,-2.137 -1.352,-0.218 -2.148,-0.894 -2.508,-2.181 -0.327,-1.189 -0.709,-2.372 -1.167,-3.92 1.56,0.305 2.617,0.529 3.675,0.709 1.864,0.321 2.388,-0.044 2.727,-1.882 0.228,-1.215 0.392,-2.453 0.697,-3.652 0.327,-1.336 -0.251,-2.1 -1.396,-2.301 -4.928,-0.9 -9.858,-1.821 -14.808,-2.759 -0.393,-0.077 -1.222,0.507 -1.353,0.943 -0.511,1.636 -0.817,3.326 -1.199,5.005 -0.228,1.036 0.371,1.674 1.254,1.696 2.781,0.071 3.555,1.815 4.242,4.187 2.312,7.971 5.049,15.844 7.895,23.739 0.174,0.48 0.305,0.982 0.567,1.794 -1.178,-0.218 -2.138,-0.409 -3.086,-0.572 -1.483,-0.257 -2.148,0.142 -2.454,1.554 -0.315,1.401 -0.545,2.813 -0.817,4.219 -0.24,1.2 0.24,1.909 1.581,2.165 5.31,0.987 10.642,1.897 15.986,2.748 1.156,0.174 1.733,-0.224 1.887,-1.281 0.228,-1.652 0.479,-3.304 0.73,-4.956 C 7.207,17.791 6.662,17.245 5.604,17.071 4.383,16.875 3.15,16.695 1.646,16.438 2.006,15.806 2.202,15.337 2.519,14.966 8.505,7.851 14.295,0.638 19.812,-6.695 c 0.568,-0.758 1.178,-0.916 2.073,-0.797 3.892,0.475 3.904,0.436 4.361,-3.494 0.47,-4.078 0.47,-4.057 -3.511,-4.548 -3.958,-0.507 -7.905,-1.057 -11.852,-1.662 -1.811,-0.279 -2.323,0.114 -2.64,1.989 -0.196,1.276 -0.338,2.552 -0.534,3.828 -0.186,1.227 0.349,1.914 1.526,2.121 1.091,0.185 2.203,0.332 3.305,0.502 0.065,0.163 0.142,0.332 0.196,0.501" style="fill:#ffffff;fill-opacity:1;fill-rule:evenodd;stroke:none" id="path5104"/></g><g id="g5106" transform="translate(341.4404,381.8677)"><path d="m 0,0 c 0.666,3.473 1.331,6.935 1.985,10.414 0.414,2.148 -0.196,2.998 -2.454,3.418 -5.822,1.08 -11.668,2.045 -17.523,2.884 -2.563,0.371 -3.457,-0.278 -3.795,-2.758 -0.752,-5.382 -1.494,-10.769 -2.235,-16.161 -0.229,-1.603 -0.48,-3.211 -0.644,-4.825 -0.152,-1.636 0.491,-2.737 1.8,-2.955 5.779,-0.922 11.526,-1.963 17.294,-3.01 2.203,-0.398 3.163,0.392 3.588,2.584 C -1.319,-6.936 -0.654,-3.468 0,0 m -29.147,4.672 c 0.632,5.12 1.363,10.229 1.876,15.359 0.293,2.912 3.107,5.594 6.847,4.99 8.102,-1.309 16.237,-2.509 24.318,-4.052 C 7.818,20.222 9.935,17.491 9.193,13.827 7.23,3.849 5.169,-6.118 3.064,-16.068 c -0.697,-3.255 -3.216,-5.61 -7.174,-4.76 -7.372,1.57 -14.809,2.775 -22.289,3.648 -3.097,0.36 -5.125,3.435 -4.711,6.357 0.763,5.153 1.319,10.332 1.963,15.495" style="fill:#ffffff;fill-opacity:1;fill-rule:evenodd;stroke:none" id="path5108"/></g><g id="g5110" transform="translate(138.6714,352.3652)"><path d="m 0,0 c -4.678,-1.325 -9.334,-2.715 -13.979,-4.182 -2.105,-0.665 -2.781,-0.311 -3.478,1.794 -0.328,0.998 -0.666,1.99 -0.96,2.993 -0.316,1.041 -0.022,1.778 1.068,2.11 0.087,0.038 0.186,0.071 0.273,0.093 4.307,1.297 3.522,1.211 2.41,4.907 -2.094,6.848 -4.23,13.685 -6.357,20.528 -0.557,1.766 -0.633,1.832 -2.552,1.199 -4.188,-1.406 -4.111,-1.374 -5.365,2.563 -1.232,3.871 -1.429,3.582 2.704,4.891 4.417,1.384 8.843,2.726 13.303,3.969 1.887,0.529 2.247,0.354 2.738,-1.358 0.382,-1.33 0.742,-2.666 1.101,-4.002 0.305,-1.09 -0.207,-1.766 -1.275,-2.104 -0.916,-0.295 -1.844,-0.578 -2.771,-0.785 -1.286,-0.295 -1.591,-0.954 -1.221,-2.127 1.145,-3.784 2.236,-7.595 3.359,-11.395 1.112,-3.806 2.268,-7.595 3.326,-11.412 0.349,-1.281 0.905,-1.543 2.158,-1.156 4.232,1.287 8.506,2.454 12.791,3.49 1.266,0.311 1.669,0.861 1.298,2.126 -0.468,1.642 -0.817,3.332 -1.298,4.978 -0.37,1.293 0.164,2.012 1.342,2.41 0.142,0.054 0.283,0.076 0.425,0.115 3.425,0.91 3.489,0.855 4.286,-2.465 0.862,-3.576 1.712,-7.153 2.563,-10.73 C 16.303,4.689 15.965,4.155 14.23,3.729 9.477,2.557 4.723,1.325 0,0" style="fill:#ffffff;fill-opacity:1;fill-rule:evenodd;stroke:none" id="path5112"/></g><g id="g5114" transform="translate(385.6592,133.79)"><path d="m 0,0 c -0.121,0.846 -0.143,1.292 -0.262,1.718 -1.342,4.716 -2.683,9.432 -4.046,14.148 -0.469,1.68 -0.698,1.788 -2.421,1.32 -4.1,-1.08 -3.773,-1.434 -4.896,2.758 -1.102,4.139 -1.352,3.588 2.705,4.679 3.849,1.046 7.709,2.137 11.569,3.26 1.603,0.469 1.941,0.278 2.454,-1.32 C 5.518,25.32 5.91,24.066 6.291,22.818 6.749,21.297 6.586,20.991 4.982,20.501 4.307,20.288 3.609,20.113 2.943,19.879 1.908,19.52 1.472,18.952 1.842,17.759 4.1,10.425 6.303,3.092 8.473,-4.264 c 0.338,-1.123 0.937,-1.423 2.06,-0.986 0.055,0.017 0.098,0.021 0.153,0.032 4.286,1.391 4.078,1.123 5.245,-2.649 1.112,-3.61 1.057,-3.801 -2.945,-4.924 -4.209,-1.183 -8.483,-2.197 -12.703,-3.293 -1.538,-0.403 -2.192,0.104 -2.497,1.363 -0.262,1.14 -0.546,2.268 -0.85,3.403 -0.557,2.115 -0.513,2.191 1.82,2.807 0.785,0.207 1.559,0.414 2.334,0.621 0.033,0.219 0.044,0.426 0.065,0.633 -8.352,3.686 -16.509,7.584 -24.731,11.848 0.076,-0.714 0.088,-1.102 0.164,-1.461 1.144,-4.869 2.333,-9.733 3.412,-14.607 0.262,-1.188 0.862,-1.407 1.996,-1.107 0.971,0.251 1.963,0.404 2.934,0.622 1.286,0.283 2.06,-0.256 2.322,-1.357 0.359,-1.538 0.676,-3.098 0.829,-4.673 0.032,-0.409 -0.557,-1.189 -0.993,-1.298 -5.32,-1.319 -10.675,-2.508 -16.072,-3.495 -0.513,-0.093 -1.538,0.551 -1.713,1.053 -0.512,1.494 -0.708,3.091 -1.035,4.639 -0.197,0.889 0.228,1.435 1.089,1.745 0.23,0.081 0.492,0.148 0.731,0.207 3.425,0.845 3.425,0.851 2.705,4.15 -1.516,6.842 -3.043,13.674 -4.493,20.521 -0.251,1.195 -0.763,1.566 -1.941,1.287 -4.132,-0.959 -3.414,-0.54 -4.187,2.835 -0.186,0.873 -0.338,1.745 -0.534,2.613 -0.219,0.893 0.065,1.417 1.003,1.613 4.677,0.96 9.345,2.023 14.011,3.098 1.549,0.353 2.039,0 2.432,-1.5 0.306,-1.216 0.633,-2.438 0.906,-3.664 0.316,-1.451 -0.022,-1.952 -1.451,-2.329 -0.959,-0.245 -1.908,-0.506 -2.856,-0.779 -0.11,-0.038 -0.175,-0.213 -0.458,-0.605 C -16.815,7.89 -8.702,3.915 0,0" style="fill:#ffffff;fill-opacity:1;fill-rule:evenodd;stroke:none" id="path5116"/></g><g id="g5118" transform="translate(139.937,159.2197)"><path d="m 0,0 c 3.74,-0.878 7.491,-1.701 11.253,-2.508 3.37,-0.731 4.918,-3.059 4.286,-6.45 -0.393,-2.066 -0.797,-4.128 -1.178,-6.194 -0.218,-1.221 -0.905,-1.74 -2.181,-1.445 -0.186,0.043 -0.36,0.082 -0.545,0.115 -3.206,0.643 -3.282,0.768 -2.715,3.805 0.435,2.312 0.011,2.934 -2.345,3.436 -5.419,1.178 -10.806,2.447 -16.171,3.804 -1.734,0.443 -2.355,0.067 -2.802,-1.634 -0.415,-1.598 -0.819,-3.19 -1.222,-4.783 -0.437,-1.701 -0.044,-2.344 1.724,-2.796 6.444,-1.647 12.91,-3.245 19.453,-4.493 2.791,-0.55 5.615,-3.359 4.797,-6.827 -1.024,-4.214 -1.678,-8.527 -2.497,-12.791 -0.534,-2.835 -3.293,-4.639 -6.412,-4.002 -8.331,1.686 -16.618,3.637 -24.829,5.84 -3.064,0.813 -4.755,3.784 -3.98,6.908 0.61,2.481 1.471,4.88 2.235,7.323 0.327,1.068 0.992,1.379 2.182,1.057 4.416,-1.182 4.35,-0.975 3.249,-5.076 -0.655,-2.421 -0.186,-3.107 2.387,-3.789 5.323,-1.396 10.665,-2.748 16.052,-3.97 2.803,-0.627 3.73,-0.032 4.264,2.596 0.338,1.657 0.709,3.304 1.003,4.983 0.338,1.925 -0.142,2.569 -2.17,2.999 -6.575,1.428 -13.108,3.07 -19.66,4.645 -3.894,0.938 -5.595,3.839 -4.592,7.547 0.884,3.352 1.778,6.711 2.737,10.048 0.448,1.548 1.113,2.971 2.585,3.887 1.189,0.752 2.377,0.982 3.773,0.6 C -7.579,1.805 -3.784,0.894 0,0" style="fill:#ffffff;fill-opacity:1;fill-rule:evenodd;stroke:none" id="path5120"/></g><g id="g5122" transform="translate(216.4536,120.5303)"><path d="m 0,0 v 0.011 c 1.331,-0.098 2.661,-0.267 4.002,-0.256 1.254,0 1.56,0.507 1.036,1.587 C 3.894,3.67 2.716,5.965 1.603,8.293 1.134,9.253 0.557,9.34 -0.055,8.468 -1.57,6.271 -3.075,4.062 -4.591,1.864 -5.224,0.949 -4.853,0.437 -3.86,0.316 -2.573,0.153 -1.286,0.099 0,0 m 10.752,-10.697 c -0.731,1.412 -1.407,2.846 -2.191,4.219 -0.186,0.301 -0.819,0.469 -1.255,0.497 -4.71,0.377 -9.432,0.736 -14.132,1.265 -1.385,0.158 -2.333,-0.257 -3.054,-1.38 -0.654,-1.024 -1.362,-2.033 -2.267,-3.364 1.635,-0.158 2.748,-0.25 3.849,-0.365 1.93,-0.201 2.366,-0.676 2.225,-2.514 -0.099,-1.215 -0.284,-2.432 -0.295,-3.658 -0.011,-1.347 -0.807,-1.919 -2.05,-1.805 -5.343,0.519 -10.6,0.977 -15.932,1.528 -0.894,0.053 -1.09,1.34 -1.079,1.788 0.065,1.69 0.349,3.364 0.567,5.038 0.131,1.035 0.84,1.275 1.777,1.15 1.397,-0.088 3.01,-0.251 3.01,-0.251 0,0 1.897,2.202 2.617,3.217 4.722,6.717 9.346,12.938 13.838,19.715 0.272,0.42 0.523,0.867 0.949,1.576 -1.101,0.087 -1.996,0.152 -2.891,0.245 -1.373,0.142 -1.853,0.698 -1.755,2.121 0.088,1.412 0.252,2.814 0.382,4.22 0.109,1.2 0.698,1.739 1.897,1.631 4.787,-0.443 9.597,-0.796 14.394,-1.053 1.036,-0.049 1.472,-0.551 1.407,-1.592 -0.098,-1.646 -0.186,-3.293 -0.25,-4.924 C 10.458,15.528 9.868,15.103 8.876,15.152 7.742,15.218 6.598,15.288 5.19,15.376 5.387,14.688 5.452,14.192 5.659,13.772 9.606,5.644 13.816,-2.421 18.211,-10.44 c 0.446,-0.83 1.047,-1.086 1.974,-1.108 4.034,-0.103 4.044,-0.125 3.968,-4.029 -0.076,-4.029 -0.076,-4.051 -4.372,-3.92 -4.253,0.125 -8.516,0.306 -12.769,0.556 -1.952,0.12 -2.41,0.611 -2.312,2.481 0.076,1.265 0.229,2.524 0.305,3.789 0.076,1.227 0.764,1.772 2.007,1.723 1.145,-0.055 2.301,-0.131 3.446,-0.191 0.108,0.153 0.195,0.294 0.294,0.442" style="fill:#ffffff;fill-opacity:1;fill-rule:evenodd;stroke:none" id="path5124"/></g><g id="g5126" transform="translate(341.1787,129.085)"><path d="m 0,0 c -0.632,3.396 -1.265,6.794 -1.896,10.185 -0.393,2.115 -1.222,2.677 -3.348,2.312 -5.485,-0.933 -10.982,-1.772 -16.488,-2.519 -2.411,-0.328 -3.053,-1.145 -2.737,-3.577 0.698,-5.272 1.417,-10.539 2.115,-15.806 0.208,-1.571 0.371,-3.152 0.655,-4.716 0.283,-1.576 1.242,-2.454 2.638,-2.284 6.139,0.708 12.257,1.543 18.352,2.589 2.334,0.398 2.978,1.483 2.596,3.636 C 1.266,-6.788 0.622,-3.392 0,0 m -29.093,-4.171 c -0.61,5.005 -1.123,10.022 -1.853,15.01 -0.393,2.836 1.471,5.992 4.895,6.336 7.415,0.763 14.798,2.017 22.148,3.32 3.554,0.621 6.313,-1.068 7.055,-4.65 2.017,-9.744 3.958,-19.498 5.844,-29.269 0.611,-3.2 -0.97,-6.324 -5.353,-7.011 -8.114,-1.276 -16.237,-2.513 -24.362,-3.708 -3.369,-0.491 -6.302,1.942 -6.575,4.809 -0.49,5.076 -1.188,10.114 -1.799,15.163" style="fill:#ffffff;fill-opacity:1;fill-rule:evenodd;stroke:none" id="path5128"/></g><g id="g5130" transform="translate(250.4106,100.6514)"><path d="M 0,0 C -1.265,0 -2.29,1.02 -2.29,2.273 V 6.39 c 0,1.259 1.025,2.274 2.29,2.274 h 3.151 l -0.01,23.793 h -8.408 v -6.231 c 0,-1.342 -1.08,-2.432 -2.41,-2.432 h -2.879 c -1.319,0 -2.399,1.09 -2.399,2.432 v 12.381 c 0,1.341 1.08,2.432 2.399,2.432 h 36.639 c 1.32,0 2.399,-1.091 2.399,-2.432 V 26.226 c 0,-1.342 -1.079,-2.432 -2.399,-2.432 h -2.89 c -1.319,0 -2.388,1.09 -2.388,2.432 v 6.231 H 11.602 V 8.734 l 0.262,-0.07 h 2.998 c 1.265,0 2.29,-1.015 2.29,-2.274 V 2.273 C 17.152,1.02 16.127,0 14.862,0 Z" style="fill:#ffffff;fill-opacity:1;fill-rule:evenodd;stroke:none" id="path5132"/></g><g id="g5134" transform="translate(180.8394,106.9648)"><path d="m 0,0 c -0.142,0 -0.294,0.012 -0.425,0.033 l -14.601,2.824 c -1.254,0.241 -2.072,1.461 -1.822,2.727 l 0.764,4.165 c 0.207,1.102 1.156,1.897 2.258,1.897 0.141,0 0.283,-0.01 0.425,-0.038 l 3.096,-0.605 4.471,24.012 -8.266,1.591 -1.177,-6.286 c -0.218,-1.183 -1.221,-2.045 -2.377,-2.045 -0.142,0 -0.283,0.012 -0.436,0.039 l -2.836,0.55 c -1.297,0.251 -2.148,1.56 -1.897,2.912 l 2.334,12.502 c 0.218,1.183 1.21,2.039 2.377,2.039 0.131,0 0.284,-0.01 0.436,-0.033 L 18.32,39.333 c 1.297,-0.251 2.148,-1.56 1.897,-2.917 L 17.895,23.931 c -0.229,-1.195 -1.221,-2.056 -2.377,-2.056 -0.142,0 -0.295,0.011 -0.437,0.043 l -2.835,0.546 c -1.308,0.262 -2.159,1.559 -1.908,2.917 l 1.178,6.286 -9.03,1.739 L -1.974,9.477 -1.733,9.361 1.199,8.789 C 2.454,8.55 3.271,7.328 3.031,6.058 L 2.258,1.897 C 2.051,0.797 1.102,0 0,0" style="fill:#ffffff;fill-opacity:1;fill-rule:evenodd;stroke:none" id="path5136"/></g><g id="g5138" transform="translate(288.4346,102.3965)"><path d="M 0,0 C -1.156,0.082 -2.029,0.948 -2.116,2.055 L -2.41,6.106 c -0.076,0.987 0.512,1.881 1.461,2.242 l 0.131,0.053 c 0.196,0.061 0.371,0.093 0.534,0.104 L 2.856,8.734 1.134,32.07 -1.996,31.841 -2.171,31.83 c -1.199,0 -2.191,0.91 -2.29,2.072 l -0.283,4.062 c -0.087,1.226 0.861,2.306 2.127,2.399 l 15.092,1.101 0.076,-0.022 c 1.134,-0.092 2.017,-0.954 2.104,-2.055 l 0.294,-4.062 c 0.088,-0.976 -0.511,-1.882 -1.471,-2.235 l -0.11,-0.05 c -0.207,-0.065 -0.382,-0.103 -0.545,-0.114 l -3.14,-0.229 1.712,-23.33 3.14,0.229 0.174,0.006 c 1.2,0 2.203,-0.912 2.279,-2.073 L 17.294,3.473 C 17.37,2.24 16.422,1.172 15.168,1.074 L 0.064,-0.033 Z" style="fill:#ffffff;fill-opacity:1;fill-rule:evenodd;stroke:none" id="path5140"/></g></g></g></g></svg>