<svg xmlns="http://www.w3.org/2000/svg" width="48" height="48" viewBox="0 0 48 48" version="1.1" id="svg32"><metadata id="metadata36"/><defs id="defs4"><style id="style2">.a,.b{fill:none;stroke:#231815;stroke-width:2px}.a{stroke-linecap:round;stroke-linejoin:round}.b{stroke-miterlimit:10}.c{fill:#231815}</style><clipPath clipPathUnits="userSpaceOnUse" id="clipPath5082"><path d="M 60,512 C 27,512 0,485 0,452 V 452 60 C 0,27 27,0 60,0 V 0 H 269.284 357.865 452 c 33,0 60,27 60,60 v 0 392 c 0,33 -27,60 -60,60 v 0 z" id="path5080"/></clipPath><clipPath clipPathUnits="userSpaceOnUse" id="clipPath5783"><path d="M 60,512 C 27,512 0,485 0,452 V 452 60 C 0,27 27,0 60,0 V 0 H 269.284 357.865 452 c 33,0 60,27 60,60 v 0 392 c 0,33 -27,60 -60,60 v 0 z" id="path5781"/></clipPath><clipPath clipPathUnits="userSpaceOnUse" id="clipPath6419"><path d="M 60,512 C 27,512 0,485 0,452 V 452 60 C 0,27 27,0 60,0 V 0 H 269.284 357.865 452 c 33,0 60,27 60,60 v 0 392 c 0,33 -27,60 -60,60 v 0 z" id="path6417"/></clipPath></defs><g id="g30"><g transform="matrix(0.09124073,0,0,-0.09124073,0.87391442,47.112419)" id="g6413"><g id="g6415" clip-path="url(#clipPath6419)"><path d="M 512,0 H 0 v 512 h 512 z" style="fill:#f8d800;fill-opacity:1;fill-rule:evenodd;stroke:none" id="path6421"/><g id="g6423" transform="translate(189.7646,345.3516)"><path d="m 0,0 c -25.829,-26.743 -51.523,-53.362 -77.683,-80.454 1.438,-0.089 2.116,-0.169 2.857,-0.169 4.059,-0.009 8.156,0.027 12.253,-0.018 5.283,-0.053 8.952,-3.681 9.167,-8.943 0.035,-0.741 0.035,-1.499 0.035,-2.235 v -88.008 c 0,-3.187 0,-3.187 3.133,-3.187 h 234.751 c 3.061,0 3.061,0 3.124,3.021 0,6.029 -0.063,12.05 0,18.091 0.017,6.176 2.963,9.674 9.023,10.736 13.512,2.433 22.66,11.063 25.176,23.803 3.115,15.637 -8.193,31.848 -23.945,34.161 -2.286,0.316 -3.017,1.025 -3.017,3.427 0.054,8.34 0.018,16.733 -2.829,24.717 -5.149,14.418 -15.092,24.008 -29.782,28.386 -2.159,0.62 -2.678,1.548 -2.713,3.641 -0.188,9.018 -2.098,17.551 -7.872,24.843 -10.818,13.574 -30.514,16.475 -44.659,6.398 -2.938,-2.061 -5.883,-3.199 -9.373,-1.798 -3.239,1.286 -5.203,3.691 -5.685,7.158 -0.473,3.57 0.981,6.422 3.785,8.528 5.498,4.123 11.629,6.925 18.269,8.527 28.988,6.962 57.726,-12.499 62.134,-41.996 0.144,-0.888 1,-1.999 1.83,-2.441 19.163,-10.156 30.372,-25.931 33.746,-47.306 0.24,-1.549 0.598,-3.164 0.42,-4.672 -0.42,-2.901 1.132,-4.039 3.4,-5.364 16.225,-9.483 24.722,-23.762 24.044,-42.536 -0.67,-19.743 -10.863,-33.637 -28.783,-41.831 -0.322,-0.178 -0.697,-0.303 -1.035,-0.429 -4.507,-1.851 -4.507,-1.851 -4.507,-6.849 0,-6.118 0.026,-12.214 0,-18.328 -0.037,-5.822 -3.884,-9.598 -9.676,-9.598 -85.483,-0.023 -170.965,-0.037 -256.447,0.036 -1.955,0 -4.097,0.587 -5.91,1.516 -2.712,1.406 -4.104,3.968 -4.247,7.105 -0.027,1.794 0,3.579 0,5.381 v 85.541 c 0,2.95 0,3.003 -2.99,3.003 -7.801,0 -15.609,0.044 -23.481,-0.035 -4.168,-0.041 -7.122,1.802 -8.908,5.485 -1.571,3.35 -0.668,7.183 2.205,10.223 32.317,33.504 64.608,66.99 96.924,100.463 4.74,4.926 9.541,5.002 14.495,0.178 9.523,-9.228 19.027,-18.488 28.505,-27.734 3.918,-3.802 4.168,-9.318 0.643,-12.955 -3.418,-3.543 -9.157,-3.521 -13.003,0.179 C 16.064,-15.329 8.799,-8.304 1.463,-1.285 1.097,-0.919 0.678,-0.598 0,0" style="fill:#1a2474;fill-opacity:1;fill-rule:evenodd;stroke:none" id="path6425"/></g><g id="g6427" transform="translate(209.8994,268.8784)"><path d="m 0,0 c -3.285,-3.909 -6.489,-7.755 -9.836,-11.767 -3.642,4.012 -7.06,7.787 -10.835,11.99 -0.106,-1.178 -0.25,-1.793 -0.25,-2.427 -0.035,-4.235 -0.062,-8.466 -0.142,-12.709 -0.134,-6.689 -4.668,-11.304 -11.014,-11.254 -6.23,0.04 -10.684,4.837 -10.684,11.495 -0.044,13.404 -0.044,26.797 0,40.189 0,5.109 2.67,9.268 7.025,10.906 4.704,1.82 9.327,0.616 12.896,-3.32 4.168,-4.628 8.336,-9.251 13.317,-14.7 0.535,0.995 0.856,1.883 1.427,2.535 3.427,4.025 6.952,7.957 10.416,11.928 3.49,3.994 8.29,5.377 12.852,3.695 4.596,-1.718 7.273,-5.788 7.273,-11.169 V -15.016 C 22.4,-21.397 17.956,-26.101 11.86,-26.159 5.55,-26.208 1.07,-21.754 0.892,-15.208 0.749,-10.294 0.605,-5.391 0.455,-0.495 0.455,-0.428 0.356,-0.393 0,0" style="fill:#1a2474;fill-opacity:1;fill-rule:evenodd;stroke:none" id="path6429"/></g><g id="g6431" transform="translate(288.6885,204.3203)"><path d="m 0,0 c 0,7.305 -5.695,12.99 -12.986,12.99 -7.042,0 -12.915,-5.842 -12.968,-12.895 -0.071,-7.021 6.007,-13.076 13.101,-13.045 C -5.767,-12.896 -0.01,-7.122 0,0 M -12.683,33.125 C 5.398,33.054 19.937,18.157 19.812,-0.174 19.687,-18.577 4.997,-33.13 -13.37,-33.049 c -17.824,0.116 -32.344,15.062 -32.264,33.339 0.062,18.273 14.743,32.906 32.951,32.835" style="fill:#1a2474;fill-opacity:1;fill-rule:evenodd;stroke:none" id="path6433"/></g><g id="g6435" transform="translate(291.0977,261.5425)"><path d="m 0,0 c 0,-2.7 0.089,-5.417 0,-8.135 -0.25,-5.283 -3.543,-9.335 -8.462,-10.45 -4.604,-1.049 -9.62,1.039 -11.744,5.283 -0.848,1.664 -1.393,3.673 -1.401,5.532 -0.107,13.624 -0.089,27.244 -0.072,40.859 0.027,5.279 2.954,9.371 7.711,10.83 4.722,1.455 9.3,-0.312 12.379,-4.739 3.088,-4.44 6.176,-8.893 9.674,-13.892 0.116,1.165 0.215,1.759 0.215,2.313 0.124,2.601 -0.035,5.243 0.356,7.808 0.823,5.69 5.838,9.63 11.299,9.171 5.802,-0.505 10.086,-4.958 10.104,-10.809 0.062,-12.958 0.009,-25.917 0,-38.872 0,-1.558 0.116,-3.159 -0.205,-4.668 -0.947,-4.676 -3.793,-7.644 -8.505,-8.598 -4.661,-0.938 -8.381,0.736 -11.086,4.515 -2.9,4.053 -5.614,8.238 -8.416,12.344 C 1.454,-0.928 0.99,-0.393 0.589,0.161 0.393,0.116 0.214,0.049 0,0" style="fill:#1a2474;fill-opacity:1;fill-rule:evenodd;stroke:none" id="path6437"/></g><g id="g6439" transform="translate(335.0791,210.3135)"><path d="m 0,0 c 0.526,-0.124 0.786,-0.236 1.044,-0.236 1.785,-0.032 3.597,-0.103 5.355,0 2.677,0.151 4.704,2.405 4.659,5.007 0,2.48 -2.008,4.69 -4.588,4.868 -1.686,0.138 -3.427,0.138 -5.132,0 C 0.893,9.599 0.09,8.992 0.045,8.631 -0.036,5.771 0,2.9 0,0 m -21.785,-3.803 c 0,7.342 -0.018,14.719 0,22.094 0,4.892 2.57,7.363 7.46,7.363 6.873,0 13.709,0.054 20.554,-0.026 10.148,-0.104 18.77,-6.761 21.055,-16.096 3.132,-13.045 -5.972,-24.696 -19.832,-25.302 -1.909,-0.084 -3.847,-0.084 -5.774,-0.041 -1.285,0.082 -1.714,-0.382 -1.714,-1.66 0.054,-2.963 0.036,-5.957 0.027,-8.915 -0.027,-6.484 -4.498,-11.276 -10.637,-11.371 -6.321,-0.067 -11.005,4.548 -11.095,11.153 -0.099,7.612 -0.027,15.203 -0.027,22.801 z" style="fill:#1a2474;fill-opacity:1;fill-rule:evenodd;stroke:none" id="path6441"/></g><g id="g6443" transform="translate(180.0713,171.0488)"><path d="m 0,0 c -8.122,0.066 -14.36,2.584 -19.491,7.765 -3.277,3.369 -3.883,7.929 -1.491,11.616 2.347,3.649 6.586,5.118 10.942,3.529 1.883,-0.696 3.597,-1.834 5.372,-2.695 1.322,-0.639 2.856,-1.701 3.848,0.236 0.927,1.838 -0.742,2.655 -1.955,3.405 -2.286,1.419 -4.704,2.557 -6.916,4.056 -6.847,4.548 -11.264,10.474 -10.934,19.166 0.356,9.939 6.845,17.565 16.708,19.135 8.264,1.308 15.421,-1.049 21.268,-7.1 2.739,-2.837 3.239,-6.756 1.391,-9.835 -2.061,-3.373 -5.738,-4.765 -9.647,-3.4 -1.902,0.638 -3.65,1.665 -5.462,2.598 C 2.384,49.118 1.035,49.68 0.143,48.189 -0.785,46.762 0.18,45.584 1.428,44.878 3.454,43.665 5.596,42.563 7.657,41.402 13.575,38.061 18.171,33.615 19.957,26.845 23.545,13.177 13.325,0.009 0,0" style="fill:#1a2474;fill-opacity:1;fill-rule:evenodd;stroke:none" id="path6445"/></g><g id="g6447" transform="translate(214.6729,198.7109)"><path d="m 0,0 c 0,5.436 -0.106,10.871 0,16.297 0.027,1.821 -0.606,2.415 -2.32,2.245 -3.668,-0.299 -6.765,0.839 -8.943,3.927 -2.096,2.968 -2.346,6.248 -0.785,9.487 1.607,3.288 4.347,5.212 7.988,5.242 9.158,0.149 18.278,0.149 27.47,0 5.142,-0.071 9.033,-4.363 8.935,-9.476 -0.072,-5.043 -3.902,-9.064 -9.051,-9.122 -2.062,0 -2.597,-0.693 -2.552,-2.687 0.054,-10.585 0.027,-21.142 0,-31.732 0,-5.056 -3.569,-9.362 -8.308,-10.179 -5.276,-0.933 -10.158,1.856 -11.799,6.863 -0.464,1.325 -0.491,2.781 -0.528,4.172 C 0.027,-9.973 0.072,-4.989 0.072,0 Z" style="fill:#1a2474;fill-opacity:1;fill-rule:evenodd;stroke:none" id="path6449"/></g><g id="g6451" transform="translate(351.0273,274.3584)"><path d="m 0,0 c 0,-6.921 0.108,-13.855 -0.008,-20.755 -0.098,-5.189 -3.721,-9.607 -8.532,-10.724 -5.043,-1.176 -10.38,1.117 -12.576,5.74 -0.838,1.754 -1.338,3.846 -1.338,5.774 -0.116,13.32 -0.09,26.623 -0.064,39.935 0.037,6.836 4.919,11.874 11.354,11.812 6.372,-0.054 11.156,-5.096 11.183,-11.937 0,-3.334 0,-6.69 -0.019,-10.036 z" style="fill:#1a2474;fill-opacity:1;fill-rule:evenodd;stroke:none" id="path6453"/></g><g id="g6455" transform="translate(262.1543,274.3003)"><path d="m 0,0 c 0,-6.836 0.062,-13.677 -0.027,-20.514 -0.045,-5.171 -3.257,-9.268 -8.158,-10.758 -4.649,-1.397 -9.816,0.347 -12.396,4.68 -1.106,1.83 -1.838,4.16 -1.893,6.297 -0.142,13.445 -0.106,26.918 -0.053,40.367 0.036,6.823 4.954,11.83 11.343,11.768 C -4.749,31.786 -0.045,26.744 0,19.867 V 9.817 Z" style="fill:#1a2474;fill-opacity:1;fill-rule:evenodd;stroke:none" id="path6457"/></g></g></g></g></svg>