<svg xmlns="http://www.w3.org/2000/svg" width="48" height="48" viewBox="0 0 48 48" version="1.1" id="svg32"><metadata id="metadata36"/><defs id="defs4"><style id="style2">.a,.b{fill:none;stroke:#231815;stroke-width:2px}.a{stroke-linecap:round;stroke-linejoin:round}.b{stroke-miterlimit:10}.c{fill:#231815}</style><clipPath clipPathUnits="userSpaceOnUse" id="clipPath5082"><path d="M 60,512 C 27,512 0,485 0,452 V 452 60 C 0,27 27,0 60,0 V 0 H 269.284 357.865 452 c 33,0 60,27 60,60 v 0 392 c 0,33 -27,60 -60,60 v 0 z" id="path5080"/></clipPath><clipPath clipPathUnits="userSpaceOnUse" id="clipPath5783"><path d="M 60,512 C 27,512 0,485 0,452 V 452 60 C 0,27 27,0 60,0 V 0 H 269.284 357.865 452 c 33,0 60,27 60,60 v 0 392 c 0,33 -27,60 -60,60 v 0 z" id="path5781"/></clipPath></defs><g id="g30"><g transform="matrix(0.09233754,0,0,-0.09233754,0.76837101,48.248581)" id="g5777"><g id="g5779" clip-path="url(#clipPath5783)"><path d="M 512,0 H 0 v 512 h 512 z" style="fill:#006842;fill-opacity:1;fill-rule:nonzero;stroke:none" id="path5785"/><g id="g5787" transform="translate(404.9932,418.8979)"><path d="m 0,0 h -297.986 c -20.708,0 -21.467,-21.555 -21.467,-21.555 10.044,-52.044 46.773,-241.555 49.744,-263.278 3.329,-25.262 15.139,-43.875 48.811,-43.875 h 60.722 22.387 60.693 c 33.76,0 45.526,18.613 48.884,43.875 2.941,21.723 39.576,211.234 49.679,263.278 C 21.467,-21.555 20.707,0 0,0" style="fill:#ffffff;fill-opacity:1;fill-rule:nonzero;stroke:none" id="path5789"/></g><g id="g5791" transform="translate(297.1162,176.0879)"><path d="m 0,0 h -88.189 c -3.175,-30.336 -4.547,-64.387 -4.547,-102.708 H -3.284 C -3.284,-73.314 -3.897,-36.132 0,0" style="fill:#e60013;fill-opacity:1;fill-rule:nonzero;stroke:none" id="path5793"/></g><g id="g5795" transform="translate(218.5908,235.3799)"><path d="m 0,0 h 90.569 c 11.41,34.043 31.22,61.153 65.65,70.613 v 91.35 C 66.84,134.788 20.701,87.875 0,0" style="fill:#e60013;fill-opacity:1;fill-rule:nonzero;stroke:none" id="path5797"/></g><g id="g5799" transform="translate(353.3359,397.3428)"><path d="m 0,0 h -234.044 v -81.116 h 120.496 C -93.964,-52.591 -44.117,-10.277 0,0" style="fill:#eb6100;fill-opacity:1;fill-rule:nonzero;stroke:none" id="path5801"/></g><g id="g5803" transform="translate(174.3359,220.3506)"><path d="M 0,0 V 10.708 H -11.847 -28.015 V 0 -9.54 -20.233 -29.555 -40.248 H -11.847 0 v 10.693 h -11.847 v 9.322 H 0 V -9.54 H -11.847 V 0 Z" style="fill:#006842;fill-opacity:1;fill-rule:evenodd;stroke:none" id="path5805"/></g><g id="g5807" transform="translate(241.6494,220.3506)"><path d="M 0,0 V 10.708 H -11.847 -28 V 0 -9.54 -20.233 -29.555 -40.248 H -11.847 0 v 10.693 h -11.847 v 9.322 H 0 V -9.54 H -11.847 V 0 Z" style="fill:#006842;fill-opacity:1;fill-rule:evenodd;stroke:none" id="path5809"/></g><g id="g5811" transform="translate(315.7158,220.3506)"><path d="M 0,0 V 10.708 H -11.84 -28.008 V 0 -9.54 -20.233 -29.555 -40.248 H -11.84 0 v 10.693 h -11.84 v 9.322 H 0 V -9.54 H -11.84 V 0 Z" style="fill:#006842;fill-opacity:1;fill-rule:evenodd;stroke:none" id="path5813"/></g><g id="g5815" transform="translate(197.1162,190.1094)"><path d="M 0,0 V 40.941 H -14.824 V 0 -10.007 H 0 11.146 L 12.475,0 Z" style="fill:#006842;fill-opacity:1;fill-rule:evenodd;stroke:none" id="path5817"/></g><g id="g5819" transform="translate(283.168,230.9492)"><path d="m 0,0 h -10.935 l -7.248,-32.613 -6.92,32.685 h -12.416 l 8.622,-51.021 H -14.3 l -0.036,0.102 H -10 Z" style="fill:#006842;fill-opacity:1;fill-rule:evenodd;stroke:none" id="path5821"/></g><g id="g5823" transform="translate(363.6641,220.8613)"><path d="m 0,0 c -0.044,2.496 -1.132,4.452 -3.036,6.073 -3.067,2.57 -6.672,3.503 -10.533,3.738 -4.051,0.248 -8.322,-0.884 -11.912,-3.22 v 3.606 h -14.242 v -51.029 h 6.84 7.402 v 2.445 c 0.006,10.898 0,21.811 0.021,32.715 0.015,3.3 1.569,4.796 4.817,4.752 2.548,-0.029 3.964,-1.183 4.336,-3.532 v -36.409 h 1.329 c 0.073,-0.008 0.139,-0.015 0.211,-0.015 1.746,0.007 3.49,0.015 5.235,0.015 H 0.015 V -4.401 0 Z" style="fill:#006842;fill-opacity:1;fill-rule:evenodd;stroke:none" id="path5825"/></g></g></g></g></svg>